<svg xmlns="http://www.w3.org/2000/svg" viewBox="0 0 64 64">
  <!-- Transparent background -->

  <!-- Main film strip -->
  <path d="M18 12
       C14 12 12 15 12 19
       V45
       C12 49 15 52 19 52
       H38
       C48 52 54 46 54 36
       C54 26 48 20 38 20
       H22
       C20 20 19 19 19 17
       C19 15 20 14 22 14
       H48" fill="none" stroke="#222" stroke-width="8" stroke-linecap="round" stroke-linejoin="round"></path>

  <!-- Top sprockets -->
  <g fill="#fff">
    <rect x="13" y="16" width="3" height="3" rx=".5"></rect>
    <rect x="13" y="23" width="3" height="3" rx=".5"></rect>
    <rect x="13" y="30" width="3" height="3" rx=".5"></rect>
    <rect x="13" y="37" width="3" height="3" rx=".5"></rect>
    <rect x="13" y="44" width="3" height="3" rx=".5"></rect>

    <rect x="48" y="23" width="3" height="3" rx=".5"></rect>
    <rect x="48" y="30" width="3" height="3" rx=".5"></rect>
    <rect x="48" y="37" width="3" height="3" rx=".5"></rect>
  </g>
</svg>